<svg width="11" height="7" viewBox="0 0 11 7" fill="none" xmlns="http://www.w3.org/2000/svg">
<path d="M0.640775 3.85C0.563852 3.78 0.525391 3.675 0.525391 3.605C0.525391 3.535 0.563852 3.43 0.640775 3.36L1.17924 2.87C1.33308 2.73 1.56385 2.73 1.7177 2.87L1.75616 2.905L3.87154 4.97C3.94847 5.04 4.06385 5.04 4.14078 4.97L9.29462 0.105H9.33308C9.48693 -0.035 9.7177 -0.035 9.87154 0.105L10.41 0.595C10.5639 0.735 10.5639 0.945 10.41 1.085L4.25616 6.895C4.17924 6.965 4.10231 7 3.98693 7C3.87154 7 3.79462 6.965 3.7177 6.895L0.717698 3.955L0.640775 3.85Z" fill="#f8f8f8"/>
</svg>
